#!OML:ASF E:\motion texture\Top Level 1\Subject 1\Session 1\male.ASF
:FULLY-SPECIFIED
:DEGREES
327
root 12.7431 17.7134 5.80789 366.168 -67.4605 -360.492
lowerback -0.00621196 2.4282 -3.40472
upperback 0.136136 3.23494 -0.703707
thorax -0.00461707 1.61308 1.17871
lowerneck -14.63 -10.2159 -13.8748
upperneck 10.8377 -13.1878 14.117
head 7.63216 -5.88412 5.28402
rclavicle 6.0033e-014 -1.82882e-014
rhumerus 23.3796 34.6866 -53.0232
rradius 103.377
rwrist 17.1786
rhand -33.0496 -38.4896
rfingers 7.12502
rthumb -6.26213 -68.377
lclavicle 6.0033e-014 -1.82882e-014
lhumerus -17.3633 -28.3228 87.5203
lradius 90.0968
lwrist 11.6234
lhand -6.61373 26.467
lfingers 7.12502
lthumb 19.2423 55.535
rfemur -32.7518 -12.4721 15.0751
rtibia 35.9256
rfoot -5.49064 -23.3428
rtoes 7.87793
lfemur -10.2065 -12.0432 -17.188
ltibia 22.7339
lfoot -14.2639 0.356746
ltoes -11.2549
328
root 12.611 17.7092 5.81914 365.722 -67.5462 -359.999
lowerback 0.0353093 2.29315 -3.40865
upperback 0.0595822 3.05148 -0.674567
thorax -0.0998272 1.52381 1.20783
lowerneck -14.8264 -10.1169 -13.7513
upperneck 11.0508 -13.0311 13.8711
head 7.68397 -5.81091 5.20011
rclavicle 5.7896e-014 2.38542e-015
rhumerus 24.3412 32.4761 -52.2366
rradius 104.693
rwrist 17.3275
rhand -33.1999 -39.2675
rfingers 7.12502
rthumb -6.40717 -69.1506
lclavicle 5.7896e-014 2.38542e-015
lhumerus -17.1798 -28.0475 86.7488
lradius 89.7462
lwrist 10.1646
lhand -6.62805 25.4972
lfingers 7.12502
lthumb 19.2285 54.5666
rfemur -32.7889 -12.1204 14.5879
rtibia 34.3068
rfoot -5.36276 -23.3596
rtoes 7.8867
lfemur -9.57517 -12.0131 -17.3614
ltibia 22.4708
lfoot -14.4511 0.389034
ltoes -11.6434
329
root 12.4778 17.7047 5.8289 365.291 -67.6264 -359.52
lowerback 0.0783168 2.16269 -3.40494
upperback -0.0173459 2.87408 -0.647674
thorax -0.195827 1.43757 1.2307
lowerneck -15.0192 -10.0204 -13.6232
upperneck 11.2555 -12.8792 13.6301
head 7.73401 -5.74019 5.11649
rclavicle 1.66234e-014 -1.03368e-014
rhumerus 25.3079 30.1984 -51.5531
rradius 105.962
rwrist 17.5046
rhand -33.3489 -40.0542
rfingers 7.12502
rthumb -6.551 -69.9329
lclavicle 1.66234e-014 -1.03368e-014
lhumerus -17.0207 -27.7519 85.968
lradius 89.3248
lwrist 8.72897
lhand -6.67798 24.5845
lfingers 7.12502
lthumb 19.1805 53.6586
rfemur -32.8025 -11.7639 14.1175
rtibia 32.7367
rfoot -5.21363 -23.4204
rtoes 7.91658
lfemur -8.95483 -11.9815 -17.5178
ltibia 22.2177
lfoot -14.6246 0.412825
ltoes -12.0554
330
root 12.3434 17.7 5.83715 364.881 -67.7013 -359.059
lowerback 0.123201 2.03637 -3.39239
upperback -0.0941447 2.70217 -0.622361
thorax -0.292369 1.35407 1.24732
lowerneck -15.2098 -9.92649 -13.4908
upperneck 11.4527 -12.7323 13.394
head 7.78281 -5.67191 5.03313
rclavicle 3.21286e-014 -1.35174e-014
rhumerus 26.2818 27.862 -50.9774
rradius 107.185
rwrist 17.7126
rhand -33.5002 -40.8482
rfingers 7.12502
rthumb -6.69712 -70.7222
lclavicle 3.21286e-014 -1.35174e-014
lhumerus -16.8895 -27.4392 85.1831
lradius 88.8315
lwrist 7.32149
lhand -6.76988 23.7355
lfingers 7.12502
lthumb 19.0921 52.8185
rfemur -32.795 -11.4051 13.6679
rtibia 31.2261
rfoot -5.04774 -23.5177
rtoes 7.97353
lfemur -8.34598 -11.9489 -17.6554
ltibia 21.977
lfoot -14.7839 0.429694
ltoes -12.493
331
root 12.2079 17.6952 5.84391 364.493 -67.7705 -358.62
lowerback 0.168726 1.91532 -3.36906
upperback -0.172608 2.53727 -0.600179
thorax -0.39061 1.27407 1.25499
lowerneck -15.3869 -9.83362 -13.3527
upperneck 11.638 -12.5897 13.1645
head 7.82693 -5.60608 4.95086
rclavicle 7.93896e-014 4.17448e-015
rhumerus 27.255 25.4758 -50.518
rradius 108.361
rwrist 17.9514
rhand -33.6802 -41.6183
rfingers 7.12502
rthumb -6.87089 -71.4868
lclavicle 7.93896e-014 4.17448e-015
lhumerus -16.7942 -27.1181 84.4004
lradius 88.2645
lwrist 5.9334
lhand -6.90381 22.9633
lfingers 7.12502
lthumb 18.9633 52.0589
rfemur -32.7685 -11.0481 13.242
rtibia 29.7849
rfoot -4.86289 -23.6472
rtoes 8.0518
lfemur -7.74816 -11.9152 -17.773
ltibia 21.7486
lfoot -14.9273 0.43849
ltoes -12.9537
332
root 12.0712 17.6903 5.84912 364.128 -67.8335 -358.204
lowerback 0.215072 1.79753 -3.33708
upperback -0.247681 2.37686 -0.578159
thorax -0.485681 1.19616 1.25804
lowerneck -15.5718 -9.74463 -13.2135
upperneck 11.8179 -12.4523 12.941
head 7.87243 -5.54232 4.86931
rclavicle -4.96465e-014 1.39149e-015
rhumerus 28.2451 23.0461 -50.1706
rradius 109.488
rwrist 18.2244
rhand -33.8742 -42.3914
rfingers 7.12502
rthumb -7.05816 -72.2537
lclavicle -4.96465e-014 1.39149e-015
lhumerus -16.7254 -26.7821 83.623
lradius 87.6202
lwrist 4.56014
lhand -7.07712 22.2499
lfingers 7.12502
lthumb 18.7966 51.3618
rfemur -32.7253 -10.6972 12.8421
rtibia 28.4203
rfoot -4.65772 -23.7994
rtoes 8.15769
lfemur -7.16308 -11.8827 -17.8705
ltibia 21.5362
lfoot -15.0542 0.441062
ltoes -13.4383
333
root 11.9332 17.6856 5.85283 363.788 -67.8924 -357.812
lowerback 0.262793 1.68441 -3.29585
upperback -0.322288 2.22274 -0.557556
thorax -0.580974 1.12131 1.25474
lowerneck -15.7551 -9.65839 -13.0709
upperneck 11.9917 -12.3203 12.7241
head 7.91734 -5.48097 4.78864
rclavicle 3.31473e-014 -1.82882e-014
rhumerus 29.2449 20.5848 -49.9435
rradius 110.568
rwrist 18.5257
rhand -34.059 -43.1905
rfingers 7.12502
rthumb -7.23654 -73.0468
lclavicle 3.31473e-014 -1.82882e-014
lhumerus -16.6926 -26.4392 82.8579
lradius 86.8992
lwrist 3.20313
lhand -7.28455 21.5981
lfingers 7.12502
lthumb 18.5971 50.7291
rfemur -32.6687 -10.3566 12.4725
rtibia 27.1396
rfoot -4.43769 -23.9625
rtoes 8.30908
lfemur -6.591 -11.8508 -17.9477
ltibia 21.3415
lfoot -15.1639 0.437794
ltoes -13.9477
